Coordinates
version=1
nRows=32
nColumns=22
inDegrees=yes

Units are S.I. units (second, meters, Newtons, ...)
If the header above contains a line with 'inDegrees', this indicates whether rotational values are in degrees (yes) or radians (no).

endheader
time	pelvis_tilt	pelvis_list	pelvis_rotation	pelvis_tx	pelvis_ty	pelvis_tz	hip_flexion_r	hip_adduction_r	hip_rotation_r	knee_angle_r	ankle_angle_r	subtalar_angle_r	hip_flexion_l	hip_adduction_l	hip_rotation_l	knee_angle_l	ankle_angle_l	subtalar_angle_l	lumbar_extension	lumbar_bending	lumbar_rotation
      0.01000000	      0.47275913	      0.37735702	    -23.65019572	     -0.93642401	      0.90744380	     -0.37693320	     -5.19282220	     -1.48361209	      0.29835812	     -3.56840213	     16.50357965	      0.37744672	     -1.12055115	     -1.29701678	    -10.92361501	    -12.16175457	     14.14285672	      3.64361678	     -3.58799975	     -2.73360261	      3.82708344
      0.02000000	      0.46863252	      0.38146473	    -23.65216258	     -0.93638542	      0.90743714	     -0.37682615	     -5.19379361	     -1.48042862	      0.29695557	     -3.56516366	     16.50324586	      0.37522725	     -1.12112948	     -1.29864050	    -10.92606798	    -12.15910736	     14.14055841	      3.64545487	     -3.59426433	     -2.73983166	      3.82622004
      0.03000000	      0.46316309	      0.38575627	    -23.65522748	     -0.93632891	      0.90742393	     -0.37669278	     -5.19600819	     -1.47630775	      0.29471314	     -3.56044683	     16.50336380	      0.37239736	     -1.12408156	     -1.30163863	    -10.93067514	    -12.15404192	     14.13788080	      3.64780924	     -3.59746629	     -2.74649797	      3.82453131
      0.04000000	      0.45545109	      0.38881415	    -23.66352478	     -0.93620642	      0.90740531	     -0.37653044	     -5.20967479	     -1.47122287	      0.28824359	     -3.53900301	     16.50554591	      0.35905211	     -1.14519109	     -1.30463620	    -10.96009631	    -12.12125948	     14.12804059	      3.65984980	     -3.58620472	     -2.74487593	      3.82265976
      0.05000000	      0.45489814	      0.38258300	    -23.68756126	     -0.93609998	      0.90739704	     -0.37632562	     -5.23068777	     -1.45957545	      0.30165354	     -3.52087973	     16.50667298	      0.34003467	     -1.18368429	     -1.31403877	    -10.99001048	    -12.08199691	     14.12256512	      3.68123831	     -3.58975710	     -2.74069462	      3.83958955
      0.06000000	      0.44971512	      0.38544235	    -23.69904227	     -0.93602051	      0.90736945	     -0.37613668	     -5.23422908	     -1.45321500	      0.30177139	     -3.51939598	     16.50699735	      0.33886223	     -1.19092312	     -1.31966770	    -10.99102022	    -12.08153508	     14.12287862	      3.68279942	     -3.59049778	     -2.74763811	      3.83877322
      0.07000000	      0.44175183	      0.37187636	    -23.73468334	     -0.93587089	      0.90734418	     -0.37588564	     -5.25564912	     -1.43087265	      0.31452322	     -3.49764469	     16.51621849	      0.33169410	     -1.24085257	     -1.33832034	    -11.04032518	    -12.02311090	     14.13283896	      3.69580297	     -3.57683766	     -2.73029734	      3.86445173
      0.08000000	      0.46071555	      0.34379270	    -23.80045436	     -0.93577455	      0.90735813	     -0.37558256	     -5.30069985	     -1.40691522	      0.38080024	     -3.48385005	     16.51742077	      0.32213447	     -1.31857134	     -1.36309425	    -11.11011633	    -11.98192360	     14.15206621	      3.72332747	     -3.60487322	     -2.71687095	      3.94060906
      0.09000000	      0.45713024	      0.34617906	    -23.81694967	     -0.93570812	      0.90732441	     -0.37536054	     -5.30513004	     -1.39905288	      0.38052394	     -3.48279684	     16.51745201	      0.32178043	     -1.32549950	     -1.37087241	    -11.10976388	    -11.98559142	     14.15227426	      3.72429110	     -3.60295080	     -2.72893602	      3.93717152
      0.10000000	      0.47913553	      0.31348278	    -23.89083936	     -0.93564702	      0.90734043	     -0.37503859	     -5.35678331	     -1.37157990	      0.47043717	     -3.45975665	     16.51570521	      0.31645508	     -1.39579238	     -1.40416863	    -11.21506522	    -11.96680244	     14.18201569	      3.75815731	     -3.63528978	     -2.71573299	      4.01192622
      0.11000000	      0.47532681	      0.31426188	    -23.91146211	     -0.93560802	      0.90731038	     -0.37481144	     -5.36033942	     -1.36161291	      0.46792641	     -3.45704495	     16.51680790	      0.31628939	     -1.40009049	     -1.41378586	    -11.21218518	    -11.97178168	     14.18216481	      3.75882259	     -3.63259519	     -2.72905089	      4.00993009
      0.12000000	      0.46604864	      0.28902139	    -23.95411713	     -0.93560316	      0.90728267	     -0.37454561	     -5.37559417	     -1.32362290	      0.50471307	     -3.43392154	     16.53478640	      0.31848876	     -1.40208808	     -1.45708634	    -11.24908965	    -11.99878342	     14.20079926	      3.76815657	     -3.63657427	     -2.71562151	      4.07376383
      0.13000000	      0.46438384	      0.27120414	    -24.00573997	     -0.93565305	      0.90726347	     -0.37429754	     -5.37485737	     -1.29881435	      0.57895749	     -3.44393627	     16.52267657	      0.31952961	     -1.38791409	     -1.49259361	    -11.30806272	    -12.05900087	     14.23711178	      3.77884423	     -3.65141948	     -2.71075121	      4.09663849
      0.14000000	      0.44345641	      0.25623741	    -24.04549591	     -0.93569092	      0.90722092	     -0.37405510	     -5.37128330	     -1.26570863	      0.60768295	     -3.41947705	     16.52815089	      0.31940124	     -1.35960971	     -1.53199063	    -11.34554123	    -12.10397720	     14.25933629	      3.78376862	     -3.64151026	     -2.70657143	      4.14886322
      0.15000000	      0.40573864	      0.23800727	    -24.10379464	     -0.93579321	      0.90715888	     -0.37380967	     -5.33168515	     -1.22411536	      0.69947933	     -3.42615404	     16.50959372	      0.31495227	     -1.29392175	     -1.58895826	    -11.43792586	    -12.18939533	     14.31639652	      3.79067767	     -3.62076843	     -2.68775473	      4.17468788
      0.16000000	      0.36842833	      0.22622551	    -24.15119207	     -0.93590468	      0.90709829	     -0.37360101	     -5.29107415	     -1.18925205	      0.76527583	     -3.42859532	     16.50395484	      0.30734000	     -1.22446486	     -1.63550797	    -11.48616289	    -12.27176117	     14.35150967	      3.79284465	     -3.60305990	     -2.67575141	      4.20052306
      0.17000000	      0.35685971	      0.21780776	    -24.18736864	     -0.93600549	      0.90707536	     -0.37342360	     -5.27871316	     -1.16937320	      0.79964853	     -3.42624159	     16.50253721	      0.30610857	     -1.18731492	     -1.66087789	    -11.48793522	    -12.33362610	     14.36203584	      3.79172659	     -3.61490814	     -2.68091950	      4.22299147
      0.18000000	      0.30036035	      0.20085383	    -24.24460962	     -0.93609187	      0.90698985	     -0.37319399	     -5.23063508	     -1.12147159	      0.88669868	     -3.41409536	     16.47995111	      0.29774471	     -1.10316927	     -1.72454160	    -11.58441200	    -12.42070580	     14.42097733	      3.78606316	     -3.56942244	     -2.65492903	      4.24444180
      0.19000000	      0.27946577	      0.19373765	    -24.28222609	     -0.93617938	      0.90695158	     -0.37304312	     -5.21251899	     -1.10162923	      0.93317138	     -3.40426006	     16.48241166	      0.29469356	     -1.05876474	     -1.75123877	    -11.59650454	    -12.47897697	     14.43557859	      3.78403732	     -3.57282722	     -2.65076662	      4.24948424
      0.20000000	      0.27223260	      0.19257192	    -24.31500784	     -0.93618414	      0.90692907	     -0.37287933	     -5.21066906	     -1.09323935	      0.92968839	     -3.39628007	     16.48239715	      0.29429651	     -1.05716467	     -1.75873462	    -11.59492825	    -12.48532229	     14.43731643	      3.78379673	     -3.57303585	     -2.66068124	      4.24135237
      0.21000000	      0.21309545	      0.17619002	    -24.37087681	     -0.93622380	      0.90683477	     -0.37269820	     -5.17970015	     -1.04971373	      1.03520471	     -3.35036799	     16.44534483	      0.28643231	     -0.97198319	     -1.81972166	    -11.70120669	    -12.57333189	     14.50541604	      3.77735155	     -3.52439623	     -2.62536758	      4.25980571
      0.22000000	      0.20582008	      0.17508269	    -24.39969862	     -0.93620452	      0.90680994	     -0.37256141	     -5.17900972	     -1.04293035	      1.03120499	     -3.34309188	     16.44666857	      0.28605388	     -0.97214046	     -1.82538847	    -11.69894775	    -12.57718321	     14.50635563	      3.77727740	     -3.52403278	     -2.63450688	      4.25148927
      0.23000000	      0.17309274	      0.17043478	    -24.43460100	     -0.93615486	      0.90674585	     -0.37240426	     -5.18030260	     -1.02248533	      1.07549052	     -3.29065625	     16.44857975	      0.28473043	     -0.94772465	     -1.85110483	    -11.74935798	    -12.59015739	     14.53355328	      3.77496722	     -3.48935647	     -2.62620028	      4.23744221
      0.24000000	      0.16689271	      0.16906613	    -24.46351954	     -0.93611485	      0.90672235	     -0.37230089	     -5.18104432	     -1.01853093	      1.07288694	     -3.28465124	     16.44782059	      0.28435611	     -0.94769921	     -1.85335829	    -11.74683318	    -12.59682749	     14.53520187	      3.77493718	     -3.48902147	     -2.63084093	      4.23098819
      0.25000000	      0.13680506	      0.16529628	    -24.50286325	     -0.93605113	      0.90666218	     -0.37216472	     -5.18711380	     -1.00346225	      1.13032038	     -3.22536886	     16.43301676	      0.28405209	     -0.92780338	     -1.87510739	    -11.80987311	    -12.60749608	     14.57474302	      3.77158858	     -3.45596710	     -2.62207406	      4.22020184
      0.26000000	      0.13098471	      0.16332185	    -24.52956350	     -0.93600957	      0.90663979	     -0.37206635	     -5.18759459	     -0.99861041	      1.12848361	     -3.22089032	     16.43175891	      0.28367638	     -0.92822321	     -1.87829844	    -11.80713786	    -12.61404615	     14.57630951	      3.77144665	     -3.45691124	     -2.62956629	      4.21489197
      0.27000000	      0.10854126	      0.15820537	    -24.57339912	     -0.93595754	      0.90659134	     -0.37193798	     -5.19219920	     -0.98636916	      1.19179896	     -3.17827862	     16.41086908	      0.28287396	     -0.91474454	     -1.89748142	    -11.87208198	    -12.62750810	     14.61760746	      3.76555282	     -3.43662650	     -2.62415341	      4.20601381
      0.28000000	      0.10236000	      0.15587892	    -24.59983103	     -0.93591340	      0.90656983	     -0.37184948	     -5.19208177	     -0.98115399	      1.18906218	     -3.17352620	     16.41037692	      0.28256548	     -0.91517967	     -1.90035998	    -11.86942456	    -12.63292320	     14.61869139	      3.76525463	     -3.43891519	     -2.63236625	      4.20029140
      0.29000000	      0.09583275	      0.15368942	    -24.62773017	     -0.93586428	      0.90654758	     -0.37176180	     -5.19228561	     -0.97656058	      1.18792402	     -3.16773644	     16.41009318	      0.28251949	     -0.91579928	     -1.90354373	    -11.86915547	    -12.63755843	     14.62075925	      3.76473537	     -3.44019347	     -2.63984826	      4.19130047
      0.30000000	      0.07874130	      0.14389259	    -24.68087231	     -0.93581400	      0.90651014	     -0.37163935	     -5.20102348	     -0.96367558	      1.27380059	     -3.12850461	     16.39167930	      0.28523124	     -0.89993559	     -1.92704159	    -11.95874195	    -12.67321854	     14.67585503	      3.74681313	     -3.42903451	     -2.63061097	      4.18532970
      0.31000000	      0.07197689	      0.14165862	    -24.70937520	     -0.93576251	      0.90649132	     -0.37156179	     -5.19931810	     -0.95917447	      1.27069570	     -3.12454776	     16.39145586	      0.28498623	     -0.90072170	     -1.92951770	    -11.95645481	    -12.67692191	     14.67685830	      3.74621856	     -3.43286624	     -2.63763911	      4.17533210
      0.32000000	      0.06615759	      0.13881174	    -24.73992531	     -0.93569817	      0.90647479	     -0.37149264	     -5.19786402	     -0.95599243	      1.27065885	     -3.12148095	     16.39125505	      0.28503010	     -0.90313635	     -1.93150753	    -11.95616433	    -12.68318845	     14.67916561	      3.74523595	     -3.43440461	     -2.64222148	      4.16155588
